<svg width="512" height="512" viewBox="0 0 512 512" xmlns="http://www.w3.org/2000/svg">
<defs>
  <radialGradient id="bg" cx="50%" cy="50%" r="50%">
    <stop offset="0%" stop-color="#2278e8"/>
    <stop offset="60%" stop-color="#1558b0"/>
    <stop offset="100%" stop-color="#0a2d6e"/>
  </radialGradient>
</defs>
<rect width="512" height="512" rx="102" fill="url(#bg)"/>
<circle cx="256" cy="256" r="230" fill="none" stroke="#4a9eff" stroke-width="14" stroke-linecap="round" stroke-dasharray="1090 354" stroke-dashoffset="-29" opacity="0.5"/>
<circle cx="256" cy="256" r="230" fill="none" stroke="#f0a500" stroke-width="18" stroke-linecap="round" stroke-dasharray="115 1309" stroke-dashoffset="51"/>
<!-- Terminal body -->
<rect x="90" y="80" width="332" height="220" rx="24" fill="white" opacity="0.93"/>
<rect x="116" y="106" width="280" height="130" rx="10" fill="#1a5ec4"/>
<!-- Screen lines -->
<rect x="140" y="130" width="160" height="16" rx="5" fill="white" opacity="0.85"/>
<rect x="140" y="158" width="110" height="12" rx="4" fill="white" opacity="0.5"/>
<rect x="140" y="182" width="130" height="12" rx="4" fill="white" opacity="0.4"/>
<!-- Keypad area -->
<rect x="90" y="316" width="332" height="148" rx="24" fill="white" opacity="0.82"/>
<!-- Row 1 -->
<circle cx="176" cy="358" r="22" fill="#1558b0"/>
<circle cx="256" cy="358" r="22" fill="#1558b0"/>
<circle cx="336" cy="358" r="22" fill="#1558b0"/>
<!-- Row 2 -->
<circle cx="176" cy="422" r="22" fill="#1558b0"/>
<circle cx="256" cy="422" r="22" fill="#1558b0"/>
<rect x="296" y="400" width="80" height="44" rx="12" fill="#f0a500"/>
</svg>
